<svg version="1.1" viewBox="0.0 0.0 1572.8608923884515 325.36745406824144" fill="none" stroke="none" stroke-linecap="square" stroke-miterlimit="10" xmlns:xlink="http://www.w3.org/1999/xlink" xmlns="http://www.w3.org/2000/svg"><clipPath id="p.0"><path d="m0 0l1572.8608 0l0 325.36746l-1572.8608 0l0 -325.36746z" clip-rule="nonzero"/></clipPath><g clip-path="url(#p.0)"><path fill="#000000" fill-opacity="0.0" d="m0 0l1572.8608 0l0 325.36746l-1572.8608 0z" fill-rule="evenodd"/><path fill="#295a35" d="m0.5209861 298.5315l1571.811 0l0 26.834656l-1571.811 0z" fill-rule="evenodd"/><path fill="#295a35" d="m0.51968503 300.83728l0 -81.322845l13.3307085 -13.330704l23.55118 0l0 97.76378z" fill-rule="evenodd"/><path fill="#295a35" d="m65.57481 311.70734l0 -65.322815l73.884514 -19.797913l20.314957 11.72966l0 78.28084z" fill-rule="evenodd"/><path fill="#295a35" d="m154.42258 301.04382l0 -35.936188l4.8989563 -18.28218l46.819733 0l4.643692 17.332779l0 35.91327z" fill-rule="evenodd"/><path fill="#295a35" d="m207.23097 301.04382l0 -35.936188l4.8989563 -18.28218l46.819748 0l4.6436768 17.332779l0 35.91327z" fill-rule="evenodd"/><path fill="#295a35" d="m259.6719 301.04382l0 -35.936188l4.8989563 -18.28218l46.819763 0l4.6436768 17.332779l0 35.91327z" fill-rule="evenodd"/><path fill="#295a35" d="m421.467 256.06775l118.23764 14.731354l0 28.175568l-166.20334 0l0 -20.605865z" fill-rule="evenodd"/><path fill="#295a35" d="m674.48816 300.7518l0 -35.936188l4.898987 -18.28218l46.819763 0l4.6436768 17.332779l0 35.91327z" fill-rule="evenodd"/><path fill="#295a35" d="m857.2047 302.69537l0 -35.936188l4.898987 -18.28218l46.819702 0l4.6436768 17.332779l0 35.91324z" fill-rule="evenodd"/><path fill="#295a35" d="m614.35693 299.1947l0 -3.8904724l0 -24.12735l12.418823 -18.44255l16.629333 0l9.856079 -14.637909l18.62561 4.2796783l10.908691 16.19931l0 42.176086z" fill-rule="evenodd"/><path fill="#295a35" d="m865.7769 300.83728l0 -81.322845l-13.3307495 -13.330704l-23.551147 0l0 97.76378z" fill-rule="evenodd"/><path fill="#295a35" d="m544.6798 320.5985l0 -2.488556l0 -41.28705l10.367249 -10.446259l2.9630127 1.9905396l0 5.470642l-2.9630127 -1.9890442l-7.8496094 5.720398l0 42.53131z" fill-rule="evenodd"/><path fill="#295a35" d="m607.78217 320.59973l0 -2.4908142l0 -41.28607l-10.367493 -10.4461975l-2.9632568 1.989502l0 5.4724426l3.9107666 -2.131256l6.902893 5.860901l0 42.532806z" fill-rule="evenodd"/><path fill="#295a35" d="m751.44965 257.16324l0 0c0 -0.62805176 0.50909424 -1.137207 1.137207 -1.137207l4.548706 0l0 0c0.30163574 0 0.59088135 0.11981201 0.8041382 0.33306885c0.21331787 0.21328735 0.33312988 0.50253296 0.33312988 0.8041382l0 12.9930725c0 0.62805176 -0.5091553 1.137207 -1.1372681 1.137207l-4.548706 0c-0.6281128 0 -1.137207 -0.5091553 -1.137207 -1.137207z" fill-rule="evenodd"/><path fill="#295a35" d="m776.6349 257.16287l0 0c0 -0.6280823 0.5091553 -1.137207 1.137207 -1.137207l4.548767 0l0 0c0.3015747 0 0.5908203 0.11981201 0.8041382 0.33306885c0.21325684 0.21328735 0.33306885 0.50253296 0.33306885 0.8041382l0 12.993042c0 0.6280823 -0.5091553 1.1372375 -1.137207 1.1372375l-4.548767 0c-0.62805176 0 -1.137207 -0.5091553 -1.137207 -1.1372375z" fill-rule="evenodd"/><path fill="#295a35" d="m736.65814 304.3716l0 -44.78363l86.77661 0l0 46.284973l-3.0654907 -0.69229126l0 -43.340668l-80.74371 0l0 44.533142z" fill-rule="evenodd"/><path fill="#295a35" d="m801.821 257.16287l0 0c0 -0.6280823 0.5091553 -1.137207 1.1372681 -1.137207l4.548706 0l0 0c0.30163574 0 0.59088135 0.11981201 0.8041382 0.33306885c0.21325684 0.21328735 0.33306885 0.50253296 0.33306885 0.8041382l0 12.993042c0 0.6280823 -0.5091553 1.1372375 -1.137207 1.1372375l-4.548706 0c-0.6281128 0 -1.1372681 -0.5091553 -1.1372681 -1.1372375z" fill-rule="evenodd"/><path fill="#295a35" d="m360.1984 277.39862l3.145172 -3.145172l4.454895 0l3.145172 3.145172l0 4.448059l-3.145172 3.145172l-4.454895 0l-3.145172 -3.145172z" fill-rule="evenodd"/><path fill="#295a35" d="m365.01224 275.55353l1.1175537 0l0 30.81665l-1.1175537 0z" fill-rule="evenodd"/><path fill="#295a35" d="m457.19208 248.47661l55.621704 6.929535l0 13.253647l-78.18585 0l0 -9.692902z" fill-rule="evenodd"/><path fill="#295a35" d="m1157.1418 311.70734l0 -65.322815l-73.8844 -19.797913l-20.315063 11.72966l0 78.28084z" fill-rule="evenodd"/><path fill="#295a35" d="m1394.0693 303.22012l0 -35.936188l-4.899048 -18.28218l-46.819702 0l-4.6436768 17.332779l0 35.91327z" fill-rule="evenodd"/><path fill="#295a35" d="m1064.6274 305.9677l0 -35.936188l-4.898926 -18.28218l-46.819763 0l-4.6436768 17.332779l0 35.91327z" fill-rule="evenodd"/><path fill="#295a35" d="m1279.0044 303.7052l0 -3.8904724l0 -24.12735l12.418823 -18.442535l16.629272 0l9.856079 -14.637924l18.62561 4.2796783l10.908691 16.19931l0 42.176086z" fill-rule="evenodd"/><path fill="#295a35" d="m1420.3893 257.6068l0 0c0 -0.6280823 0.5091553 -1.137207 1.137207 -1.137207l4.548706 0l0 0c0.30163574 0 0.5909424 0.11981201 0.8041992 0.33306885c0.21325684 0.21328735 0.3330078 0.50253296 0.3330078 0.8041382l0 12.993042c0 0.6280823 -0.5091553 1.1372375 -1.137207 1.1372375l-4.548706 0c-0.62805176 0 -1.137207 -0.5091553 -1.137207 -1.1372375z" fill-rule="evenodd"/><path fill="#295a35" d="m1445.5745 257.60645l0 0c0 -0.6280823 0.5091553 -1.137207 1.137207 -1.137207l4.548828 0l0 0c0.30163574 0 0.5908203 0.11981201 0.80407715 0.33306885c0.21325684 0.21325684 0.33312988 0.50253296 0.33312988 0.8041382l0 12.993042c0 0.6280823 -0.5091553 1.1372375 -1.137207 1.1372375l-4.548828 0c-0.62805176 0 -1.137207 -0.5091553 -1.137207 -1.1372375z" fill-rule="evenodd"/><path fill="#295a35" d="m1405.5978 304.8152l0 -44.78363l86.77661 0l0 46.284973l-3.0655518 -0.6923218l0 -43.340637l-80.74365 0l0 44.533142z" fill-rule="evenodd"/><path fill="#295a35" d="m1470.7606 257.60645l0 0c0 -0.6280823 0.5091553 -1.137207 1.137207 -1.137207l4.548828 0l0 0c0.30151367 0 0.5908203 0.11981201 0.80407715 0.33306885c0.21325684 0.21325684 0.33312988 0.50253296 0.33312988 0.8041382l0 12.993042c0 0.6280823 -0.5091553 1.1372375 -1.137207 1.1372375l-4.548828 0c-0.62805176 0 -1.137207 -0.5091553 -1.137207 -1.1372375z" fill-rule="evenodd"/><path fill="#295a35" d="m921.3648 317.36844l0 -2.488556l0 -41.28705l10.36731 -10.446259l2.9629517 1.9905396l0 5.470642l-2.9629517 -1.9890442l-7.8496094 5.720398l0 42.53131z" fill-rule="evenodd"/><path fill="#295a35" d="m1000.46716 317.36966l0 -2.4908142l0 -41.28607l-10.367432 -10.4461975l-2.9632568 1.989502l0 5.4724426l3.9107666 -2.1312256l6.902893 5.8608704l0 42.532806z" fill-rule="evenodd"/><path fill="#295a35" d="m1222.9202 299.1947l0 -3.8904724l0 -24.12735l-12.418823 -18.44255l-16.629395 0l-9.856079 -14.637909l-18.625488 4.2796783l-10.908813 16.19931l0 42.176086z" fill-rule="evenodd"/><path fill="#295a35" d="m1229.5868 271.80545l3.1452637 -3.145172l4.454834 0l3.1451416 3.145172l0 4.448059l-3.1451416 3.1451416l-4.454834 0l-3.1452637 -3.1451416z" fill-rule="evenodd"/><path fill="#295a35" d="m1234.4006 269.96036l1.1175537 0l0 30.81665l-1.1175537 0z" fill-rule="evenodd"/><path fill="#295a35" d="m1342.042 271.14172l0 -81.32283l13.330688 -13.330704l23.551147 0l0 97.763794z" fill-rule="evenodd"/><path fill="#295a35" d="m1503.902 301.36267l0 -3.8904724l0 -24.12732l12.418823 -18.442566l16.629395 0l9.856079 -14.637909l18.625488 4.279663l10.908691 16.19931l0 42.176086z" fill-rule="evenodd"/></g></svg>