<svg version="1.1" viewBox="0.0 0.0 1572.8608923884515 325.36745406824144" fill="none" stroke="none" stroke-linecap="square" stroke-miterlimit="10" xmlns:xlink="http://www.w3.org/1999/xlink" xmlns="http://www.w3.org/2000/svg"><clipPath id="p.0"><path d="m0 0l1572.8608 0l0 325.36746l-1572.8608 0l0 -325.36746z" clip-rule="nonzero"/></clipPath><g clip-path="url(#p.0)"><path fill="#000000" fill-opacity="0.0" d="m0 0l1572.8608 0l0 325.36746l-1572.8608 0z" fill-rule="evenodd"/><path fill="#000000" fill-opacity="0.0" d="m896.7148 305.19388l39.19684 -88.47244l39.19684 88.47244z" fill-rule="evenodd"/><path stroke="#60926a" stroke-width="3.0" stroke-linejoin="round" stroke-linecap="butt" d="m896.7148 305.19388l39.19684 -88.47244l39.19684 88.47244z" fill-rule="evenodd"/><path fill="#000000" fill-opacity="0.0" d="m986.1993 207.66118l-100.53546 26.960632" fill-rule="evenodd"/><path stroke="#60926a" stroke-width="3.0" stroke-linejoin="round" stroke-linecap="butt" d="m986.1993 207.66118l-100.53546 26.960632" fill-rule="evenodd"/><path fill="#000000" fill-opacity="0.0" d="m986.19415 234.5943l-100.5354 -26.960617" fill-rule="evenodd"/><path stroke="#60926a" stroke-width="3.0" stroke-linejoin="round" stroke-linecap="butt" d="m986.19415 234.5943l-100.5354 -26.960617" fill-rule="evenodd"/><path fill="#000000" fill-opacity="0.0" d="m949.41943 170.85098l-26.897644 100.53543" fill-rule="evenodd"/><path stroke="#60926a" stroke-width="3.0" stroke-linejoin="round" stroke-linecap="butt" d="m949.41943 170.85098l-26.897644 100.53543" fill-rule="evenodd"/><path fill="#000000" fill-opacity="0.0" d="m972.74164 184.32195l-73.63782 73.574814" fill-rule="evenodd"/><path stroke="#60926a" stroke-width="3.0" stroke-linejoin="round" stroke-linecap="butt" d="m972.74164 184.32195l-73.63782 73.574814" fill-rule="evenodd"/><path fill="#000000" fill-opacity="0.0" d="m899.1089 184.31482l73.57477 73.5748" fill-rule="evenodd"/><path stroke="#60926a" stroke-width="3.0" stroke-linejoin="round" stroke-linecap="butt" d="m899.1089 184.31482l73.57477 73.5748" fill-rule="evenodd"/><path fill="#000000" fill-opacity="0.0" d="m922.43616 170.85266l26.86615 100.566925" fill-rule="evenodd"/><path stroke="#60926a" stroke-width="3.0" stroke-linejoin="round" stroke-linecap="butt" d="m922.43616 170.85266l26.86615 100.566925" fill-rule="evenodd"/><path fill="#60926a" d="m953.5897 268.37912l0 5.086609l0 0c0 2.8092651 -2.2773438 5.086609 -5.086609 5.086609c-2.8092651 0 -5.086609 -2.2773438 -5.086609 -5.086609l0 -5.086609z" fill-rule="evenodd"/><path fill="#60926a" d="m928.7126 268.37912l0 5.086609l0 0c0 2.8092651 -2.2773438 5.086609 -5.086609 5.086609c-2.8092651 0 -5.086609 -2.2773438 -5.086609 -5.086609l0 -5.086609z" fill-rule="evenodd"/><path fill="#60926a" d="m885.78424 222.21031l0 0c0 -27.7621 22.505615 -50.267715 50.26776 -50.267715l0 0c13.331787 0 26.117615 5.296036 35.544617 14.723068c9.427002 9.427017 14.7230835 22.212814 14.7230835 35.544647l0 0c0 27.762085 -22.505615 50.267715 -50.2677 50.267715l0 0c-27.762146 0 -50.26776 -22.50563 -50.26776 -50.267715zm2.428955 0l0 0c0 26.420624 21.418152 47.83876 47.838806 47.83876c26.420593 0 47.838745 -21.418137 47.838745 -47.83876l0 0c0 -26.420639 -21.418152 -47.83879 -47.838745 -47.83879l0 0c-26.420654 0 -47.838806 21.418152 -47.838806 47.83879z" fill-rule="evenodd"/><path fill="#60926a" d="m892.5695 231.69582l0 5.086609l0 0c0 2.8092499 -2.2773438 5.086609 -5.086609 5.086609c-2.8092651 0 -5.086609 -2.277359 -5.086609 -5.086609l0 -5.086609z" fill-rule="evenodd"/><path fill="#60926a" d="m989.1668 231.69582l0 5.086609l0 0c0 2.8092499 -2.2773438 5.086609 -5.086609 5.086609c-2.8092651 0 -5.086609 -2.277359 -5.086609 -5.086609l0 -5.086609z" fill-rule="evenodd"/><path fill="#60926a" d="m892.83105 208.3054l0 5.086624l0 0c0 2.8092499 -2.2773438 5.086609 -5.086609 5.086609c-2.8092651 0 -5.086609 -2.277359 -5.086609 -5.086609l0 -5.086624z" fill-rule="evenodd"/><path fill="#60926a" d="m989.42834 208.3054l0 5.086624l0 0c0 2.8092499 -2.2773438 5.086609 -5.086609 5.086609c-2.8092651 0 -5.086609 -2.277359 -5.086609 -5.086609l0 -5.086624z" fill-rule="evenodd"/><path fill="#60926a" d="m976.829 254.58348l0 5.086624l0 0c0 2.8092346 -2.2773438 5.086609 -5.086609 5.086609c-2.8092651 0 -5.086609 -2.2773743 -5.086609 -5.086609l0 -5.086624z" fill-rule="evenodd"/><path fill="#60926a" d="m905.3254 254.58348l0 5.086624l0 0c0 2.8092346 -2.2773438 5.086609 -5.086609 5.086609c-2.8092651 0 -5.086609 -2.2773743 -5.086609 -5.086609l0 -5.086624z" fill-rule="evenodd"/><path fill="#60926a" d="m976.92865 185.25772l0 5.086609l0 0c0 2.8092651 -2.2773438 5.086624 -5.086609 5.086624c-2.8092651 0 -5.086609 -2.277359 -5.086609 -5.086624l0 -5.086609z" fill-rule="evenodd"/><path fill="#60926a" d="m905.42505 185.25772l0 5.086609l0 0c0 2.8092651 -2.2773438 5.086624 -5.086609 5.086624c-2.8092651 0 -5.086609 -2.277359 -5.086609 -5.086624l0 -5.086609z" fill-rule="evenodd"/><path fill="#60926a" d="m953.6155 171.23383l0 5.086609l0 0c0 2.8092651 -2.2774048 5.086609 -5.08667 5.086609c-2.809204 0 -5.086609 -2.2773438 -5.086609 -5.086609l0 -5.086609z" fill-rule="evenodd"/><path fill="#60926a" d="m928.7383 171.23383l0 5.086609l0 0c0 2.8092651 -2.2773438 5.086609 -5.086609 5.086609c-2.8092651 0 -5.086609 -2.2773438 -5.086609 -5.086609l0 -5.086609z" fill-rule="evenodd"/><path fill="#60926a" d="m912.3036 222.19571l0 0c0 -13.124374 10.632385 -23.763779 23.748047 -23.763779l0 0c6.29834 0 12.338745 2.5036774 16.792358 6.960251c4.4536743 4.4565735 6.9556885 10.500977 6.9556885 16.803528l0 0c0 13.124374 -10.632385 23.763779 -23.748047 23.763779l0 0c-13.115662 0 -23.748047 -10.639404 -23.748047 -23.763779zm2.0808105 0l0 0c0 11.975174 9.700745 21.682968 21.667236 21.682968c11.966492 0 21.667236 -9.707794 21.667236 -21.682968l0 0c0 -11.975174 -9.700745 -21.682983 -21.667236 -21.682983l0 0c-11.966492 0 -21.667236 9.707809 -21.667236 21.682983z" fill-rule="evenodd"/><path fill="#60926a" d="m898.75665 222.21732l0 0c0 -20.456284 16.583069 -37.039368 37.039368 -37.039368l0 0c9.823425 0 19.244568 3.9023438 26.190796 10.848572c6.946228 6.9462433 10.848572 16.36734 10.848572 26.190796l0 0c0 20.456284 -16.583069 37.039368 -37.039368 37.039368l0 0c-20.456299 0 -37.039368 -16.583084 -37.039368 -37.039368zm1.788269 0l0 0c0 19.468643 15.782471 35.2511 35.2511 35.2511c19.468628 0 35.2511 -15.782455 35.2511 -35.2511l0 0c0 -19.468643 -15.782471 -35.251114 -35.2511 -35.251114l0 0c-19.468628 0 -35.2511 15.782471 -35.2511 35.251114z" fill-rule="evenodd"/><path fill="#60926a" d="m925.1109 222.20203l0 0c0 -6.0533752 4.9072266 -10.960617 10.960632 -10.960617l0 0c2.9069214 0 5.694824 1.1547699 7.750366 3.2102814c2.055481 2.0555267 3.210266 4.843399 3.210266 7.7503357l0 0c0 6.0533905 -4.9072266 10.960632 -10.960632 10.960632l0 0c-6.053406 0 -10.960632 -4.907242 -10.960632 -10.960632z" fill-rule="evenodd"/><path fill="#60926a" d="m1500.8188 291.7349l0.3125 -8.4435425l0 -78.20999l36.128174 -13.745407l35.076294 13.343842l0 85.72179z" fill-rule="evenodd"/><path fill="#60926a" d="m1362.0735 284.5519l0 -106.173615l-22.005493 -46.06874l-34.355347 11.127213l0 142.90161z" fill-rule="evenodd"/><path fill="#60926a" d="m1115.5945 304.31235l0 -87.09975l10.0 -9.9973755l0 -59.771652l10.049927 -5.800522l0 -51.52494l20.020996 -5.36483l11.299194 3.0288696l0 216.5302z" fill-rule="evenodd"/><path fill="#60926a" d="m1021.90155 287.3176l0 -6.2204895l0 -84.87663l27.207336 -15.708664l138.01318 36.98163l0 82.26773z" fill-rule="evenodd"/><path fill="#60926a" d="m873.4199 296.59055l0.80841064 -182.49869l-19.35431 -5.1863556l-9.060364 5.2309723l0 58.614174l-9.275574 5.356949l0 118.48294z" fill-rule="evenodd"/><path fill="#60926a" d="m0.5249344 283.69815l1571.811 0l0 41.66931l-1571.811 0z" fill-rule="evenodd"/><path fill="#60926a" d="m606.8609 302.58005l0 -139.53543l22.50653 -6.031494l0 -12.632538l45.049866 -12.070877l14.241516 8.220474l0 10.070862l19.545898 5.2362213l0 145.85301l-103.566895 6.223114z" fill-rule="evenodd"/><path fill="#60926a" d="m37.031498 302.37833l0 -87.84523l22.005447 -38.116043l34.35545 9.206375l0 118.232956z" fill-rule="evenodd"/><path fill="#60926a" d="m90.708664 296.59055l0 -87.09973l10.0 -9.9973755l0 -59.771652l10.049866 -5.800522l0 -51.52494l20.020996 -5.36483l11.29921 3.0288696l0 216.53018z" fill-rule="evenodd"/><path fill="#60926a" d="m676.64307 290.3358l0 -35.936188l4.898926 -18.28218l46.819763 0l4.6436768 17.332794l0 35.913254z" fill-rule="evenodd"/><path fill="#60926a" d="m414.37534 290.33597l0.443573 -8.443573l0 -78.20998l51.29657 -13.745407l49.80316 13.343826l0 85.72179z" fill-rule="evenodd"/><path fill="#60926a" d="m230.11676 245.3573l0 0c0 -21.633911 23.956009 -39.171677 53.507233 -39.171677l0 0c29.551239 0 53.507233 17.537766 53.507233 39.171677l0 0c0 21.633911 -23.955994 39.17169 -53.507233 39.17169l0 0c-29.551224 0 -53.507233 -17.53778 -53.507233 -39.17169z" fill-rule="evenodd"/><path fill="#60926a" d="m230.11676 245.04688l107.014465 0l0 46.459167l-107.014465 0z" fill-rule="evenodd"/><path fill="#60926a" d="m235.8924 291.41208l0 -6.2204895l0 -84.87663l-27.207352 -15.708664l-138.01312 36.98163l0 82.26773z" fill-rule="evenodd"/><path fill="#60926a" d="m428.9654 243.23688l0.2826233 -5.37941l0 -49.827576l32.68103 -8.757187l31.729584 8.501343l0 54.613358z" fill-rule="evenodd"/><path fill="#60926a" d="m1391.189 296.59055l0.8083496 -182.49869l-19.354248 -5.1863556l-9.060425 5.2309723l0 58.614174l-9.275513 5.356949l0 118.48294z" fill-rule="evenodd"/><path fill="#60926a" d="m1049.4934 288.85864l0 -87.84523l22.005493 -38.116043l34.35547 9.20636l0 118.23297z" fill-rule="evenodd"/></g></svg>